<?xml version="1.0" encoding="UTF-8" standalone="no"?>
<!-- Created with Inkscape (http://www.inkscape.org/) -->

<svg
   width="391mm"
   height="309.672mm"
   viewBox="0 0 391 309.67196"
   version="1.1"
   id="svg5"
   sodipodi:docname="box.svg"
   inkscape:version="1.2.1 (9c6d41e410, 2022-07-14)"
   xmlns:inkscape="http://www.inkscape.org/namespaces/inkscape"
   xmlns:sodipodi="http://sodipodi.sourceforge.net/DTD/sodipodi-0.dtd"
   xmlns="http://www.w3.org/2000/svg"
   xmlns:svg="http://www.w3.org/2000/svg">
  <sodipodi:namedview
     id="namedview7"
     pagecolor="#ffffff"
     bordercolor="#000000"
     borderopacity="0.25"
     inkscape:showpageshadow="2"
     inkscape:pageopacity="0.0"
     inkscape:pagecheckerboard="0"
     inkscape:deskcolor="#d1d1d1"
     inkscape:document-units="mm"
     showgrid="false"
     inkscape:zoom="0.914906"
     inkscape:cx="703.35095"
     inkscape:cy="597.87563"
     inkscape:window-width="2560"
     inkscape:window-height="1346"
     inkscape:window-x="-11"
     inkscape:window-y="-11"
     inkscape:window-maximized="1"
     inkscape:current-layer="layer1" />
  <defs
     id="defs2" />
  <g
     inkscape:label="Layer 1"
     inkscape:groupmode="layer"
     id="layer1">
    <g
       id="panel2067">
      <path
         style="fill:none;stroke:#000000;stroke-width:1"
         d="m 76.25,200.6 h 13.625 v -3.1 h 12.05 v 3.1 h 13.6 v -3.1 h 12.05 v 3.1 h 13.6 v -3.1 h 12.05 v 3.1 h 13.6 v -3.1 h 12.05 v 3.1 H 192.5"
         id="path1302" />
      <path
         style="fill:none;stroke:#000000;stroke-width:1"
         d="m 192.5,200.6 v 11.008 h -3.1 v 11.95 h 3.1 v 14.134 h -3.1 v 11.95 h 3.1 v 11.008"
         id="path1304" />
      <path
         style="fill:none;stroke:#000000;stroke-width:1"
         d="m 192.5,260.65 h -13.625 v 3.1 h -12.05 v -3.1 h -13.6 v 3.1 h -12.05 v -3.1 h -13.6 v 3.1 h -12.05 v -3.1 h -13.6 v 3.1 h -12.05 v -3.1 H 76.25"
         id="path1306" />
      <path
         style="fill:none;stroke:#000000;stroke-width:1"
         d="m 76.25,260.65 v -11.008 h 3.1 v -11.95 h -3.1 v -14.134 h 3.1 v -11.95 h -3.1 V 200.6"
         id="path1308" />
    </g>
    <g
       id="panel5748">
      <path
         style="fill:none;stroke:#000000;stroke-width:1"
         d="m 8.1,79.35 h 10.9583 v -3.1 h 12.05 v 3.1 h 14.0334 v -3.1 h 12.05 v 3.1 H 68.15"
         id="path1311" />
      <path
         style="fill:none;stroke:#000000;stroke-width:1"
         d="m 68.15,79.35 v 10.525 h 3.1 v 12.05 h -3.1 v 13.6 h 3.1 v 12.05 h -3.1 v 13.6 h 3.1 v 12.05 h -3.1 v 13.6 h 3.1 v 12.05 h -3.1 V 189.4"
         id="path1313" />
      <path
         style="fill:none;stroke:#000000;stroke-width:1"
         d="M 68.15,189.4 H 57.1917 v 3.1 h -12.05 v -3.1 H 31.1083 v 3.1 h -12.05 v -3.1 H 8.1"
         id="path1315" />
      <path
         style="fill:none;stroke:#000000;stroke-width:1"
         d="M 8.1,189.4 V 178.875 H 5 v -12.05 h 3.1 v -13.6 H 5 v -12.05 h 3.1 v -13.6 H 5 v -12.05 h 3.1 v -13.6 H 5 V 89.875 H 8.1 V 79.35"
         id="path1317" />
    </g>
    <g
       id="panel8744">
      <path
         style="fill:none;stroke:#000000;stroke-width:1"
         d="m 76.25,76.25 h 13.675 v 3.1 h 11.95 v -3.1 h 13.7 v 3.1 h 11.95 v -3.1 h 13.7 v 3.1 h 11.95 v -3.1 h 13.7 v 3.1 h 11.95 v -3.1 H 192.5"
         id="path1320" />
      <path
         style="fill:none;stroke:#000000;stroke-width:1"
         d="m 192.5,76.25 v 13.675 h -3.1 v 11.95 h 3.1 v 13.7 h -3.1 v 11.95 h 3.1 v 13.7 h -3.1 v 11.95 h 3.1 v 13.7 h -3.1 v 11.95 h 3.1 V 192.5"
         id="path1322" />
      <path
         style="fill:none;stroke:#000000;stroke-width:1"
         d="m 192.5,192.5 h -13.675 v -3.1 h -11.95 v 3.1 h -13.7 v -3.1 h -11.95 v 3.1 h -13.7 v -3.1 h -11.95 v 3.1 h -13.7 v -3.1 h -11.95 v 3.1 H 76.25"
         id="path1324" />
      <path
         style="fill:none;stroke:#000000;stroke-width:1"
         d="m 76.25,192.5 v -13.675 h 3.1 v -11.95 h -3.1 v -13.7 h 3.1 v -11.95 h -3.1 v -13.7 h 3.1 v -11.95 h -3.1 v -13.7 h 3.1 v -11.95 h -3.1 V 76.25"
         id="path1326" />
    </g>
    <g
       id="panel5184">
      <path
         style="fill:none;stroke:#000000;stroke-width:1"
         d="m 200.6,79.35 h 10.958 v -3.1 h 12.05 v 3.1 h 14.034 v -3.1 h 12.05 v 3.1 h 10.958"
         id="path1329" />
      <path
         style="fill:none;stroke:#000000;stroke-width:1"
         d="m 260.65,79.35 v 10.525 h 3.1 v 12.05 h -3.1 v 13.6 h 3.1 v 12.05 h -3.1 v 13.6 h 3.1 v 12.05 h -3.1 v 13.6 h 3.1 v 12.05 h -3.1 V 189.4"
         id="path1331" />
      <path
         style="fill:none;stroke:#000000;stroke-width:1"
         d="m 260.65,189.4 h -10.958 v 3.1 h -12.05 v -3.1 h -14.034 v 3.1 h -12.05 v -3.1 H 200.6"
         id="path1333" />
      <path
         style="fill:none;stroke:#000000;stroke-width:1"
         d="m 200.6,189.4 v -10.525 h -3.1 v -12.05 h 3.1 v -13.6 h -3.1 v -12.05 h 3.1 v -13.6 h -3.1 v -12.05 h 3.1 v -13.6 h -3.1 v -12.05 h 3.1 V 79.35"
         id="path1335" />
    </g>
    <g
       id="panel5114">
      <path
         style="fill:none;stroke:#000000;stroke-width:1"
         d="m 268.75,76.25 h 13.675 v 3.1 h 11.95 v -5.745833 h 13.7 V 79.35 h 11.95 v -5.745833 h 13.7 V 79.35 h 11.95 v -5.745833 h 13.7 V 79.35 h 11.95 v -3.1 H 385"
         id="path1338"
         sodipodi:nodetypes="cccccccccccccccccc" />
      <path
         style="fill:none;stroke:#000000;stroke-width:1"
         d="m 385,76.25 v 13.675 h -3.1 v 11.95 h 3.1 v 13.7 h -3.1 v 11.95 h 3.1 v 13.7 h -3.1 v 11.95 h 3.1 v 13.7 h -3.1 v 11.95 H 385 V 192.5"
         id="path1340" />
      <path
         style="fill:none;stroke:#000000;stroke-width:1"
         d="m 385,192.5 h -13.675 v -3.1 h -11.95 v 6.275 h -13.7 V 189.4 h -11.95 v 6.275 h -13.7 V 189.4 h -11.95 v 6.275 h -13.7 V 189.4 h -11.95 v 3.1 H 268.75"
         id="path1342"
         sodipodi:nodetypes="cccccccccccccccccc" />
      <path
         style="fill:none;stroke:#000000;stroke-width:1"
         d="m 268.75,192.5 v -13.675 h 3.1 v -11.95 h -3.1 v -13.7 h 3.1 v -11.95 h -3.1 v -13.7 h 3.1 v -11.95 h -3.1 v -13.7 h 3.1 v -11.95 h -3.1 V 76.25"
         id="path1344" />
    </g>
    <g
       id="panel5321">
      <path
         style="fill:none;stroke:#000000;stroke-width:1"
         d="M 76.25,8.1 H 89.875 V 5 h 12.05 v 3.1 h 13.6 V 5 h 12.05 v 3.1 h 13.6 V 5 h 12.05 v 3.1 h 13.6 V 5 h 12.05 V 8.1 H 192.5"
         id="path1347" />
      <path
         style="fill:none;stroke:#000000;stroke-width:1"
         d="m 192.5,8.1 v 11.0083 h -3.1 v 11.95 h 3.1 v 14.1334 h -3.1 v 11.95 h 3.1 V 68.15"
         id="path1349" />
      <path
         style="fill:none;stroke:#000000;stroke-width:1"
         d="m 192.5,68.15 h -13.625 v 3.1 h -12.05 v -3.1 h -13.6 v 3.1 h -12.05 v -3.1 h -13.6 v 3.1 h -12.05 v -3.1 h -13.6 v 3.1 h -12.05 v -3.1 H 76.25"
         id="path1351" />
      <path
         style="fill:none;stroke:#000000;stroke-width:1"
         d="M 76.25,68.15 V 57.1417 h 3.1 v -11.95 h -3.1 V 31.0583 h 3.1 v -11.95 h -3.1 V 8.1"
         id="path1353" />
    </g>
    <g
       id="g2984">
      <ellipse
         style="fill:none;fill-opacity:1;stroke:#000000;stroke-width:0.787;stroke-dasharray:none;stroke-opacity:1"
         id="ellipse2936"
         ry="12.306628"
         rx="12.306627"
         cy="107.58587"
         cx="300.41632" />
      <ellipse
         style="fill:none;fill-opacity:1;stroke:#000000;stroke-width:0.787;stroke-dasharray:none;stroke-opacity:1"
         id="ellipse2938"
         ry="12.306628"
         rx="12.306627"
         cy="107.58587"
         cx="352.80414" />
      <ellipse
         style="fill:none;fill-opacity:1;stroke:#000000;stroke-width:0.787;stroke-dasharray:none;stroke-opacity:1"
         id="ellipse2940"
         ry="12.306628"
         rx="12.306627"
         cy="107.58587"
         cx="300.41632" />
      <ellipse
         style="fill:none;fill-opacity:1;stroke:#000000;stroke-width:0.787;stroke-dasharray:none;stroke-opacity:1"
         id="ellipse2942"
         ry="12.306628"
         rx="12.306627"
         cy="107.58587"
         cx="352.80414" />
      <ellipse
         style="fill:none;fill-opacity:1;stroke:#000000;stroke-width:0.787;stroke-dasharray:none;stroke-opacity:1"
         id="ellipse2944"
         ry="12.306628"
         rx="12.306627"
         cy="107.58587"
         cx="300.41632" />
      <ellipse
         style="fill:none;fill-opacity:1;stroke:#000000;stroke-width:0.787;stroke-dasharray:none;stroke-opacity:1"
         id="ellipse2946"
         ry="12.306628"
         rx="12.306627"
         cy="107.58587"
         cx="352.80414" />
      <ellipse
         style="fill:none;fill-opacity:1;stroke:#000000;stroke-width:0.787;stroke-dasharray:none;stroke-opacity:1"
         id="ellipse2948"
         ry="12.306628"
         rx="12.306627"
         cy="107.58587"
         cx="300.41632" />
      <ellipse
         style="fill:none;fill-opacity:1;stroke:#000000;stroke-width:0.787;stroke-dasharray:none;stroke-opacity:1"
         id="ellipse2950"
         ry="12.306628"
         rx="12.306627"
         cy="107.58587"
         cx="352.80414" />
      <ellipse
         style="fill:none;fill-opacity:1;stroke:#000000;stroke-width:0.787;stroke-dasharray:none;stroke-opacity:1"
         id="ellipse2952"
         ry="12.306628"
         rx="12.306627"
         cy="107.58587"
         cx="300.41632" />
      <ellipse
         style="fill:none;fill-opacity:1;stroke:#000000;stroke-width:0.787;stroke-dasharray:none;stroke-opacity:1"
         id="ellipse2954"
         ry="12.306628"
         rx="12.306627"
         cy="107.58587"
         cx="352.80414" />
      <ellipse
         style="fill:none;fill-opacity:1;stroke:#000000;stroke-width:0.787;stroke-dasharray:none;stroke-opacity:1"
         id="ellipse2956"
         ry="12.306628"
         rx="12.306627"
         cy="107.58587"
         cx="300.41632" />
      <ellipse
         style="fill:none;fill-opacity:1;stroke:#000000;stroke-width:0.787;stroke-dasharray:none;stroke-opacity:1"
         id="ellipse2958"
         ry="12.306628"
         rx="12.306627"
         cy="107.58587"
         cx="352.80414" />
      <ellipse
         style="fill:none;fill-opacity:1;stroke:#000000;stroke-width:0.787;stroke-dasharray:none;stroke-opacity:1"
         id="ellipse2960"
         ry="12.306628"
         rx="12.306627"
         cy="107.58587"
         cx="300.41632" />
      <ellipse
         style="fill:none;fill-opacity:1;stroke:#000000;stroke-width:0.787;stroke-dasharray:none;stroke-opacity:1"
         id="ellipse2962"
         ry="12.306628"
         rx="12.306627"
         cy="107.58587"
         cx="352.80414" />
      <ellipse
         style="fill:none;fill-opacity:1;stroke:#000000;stroke-width:0.787;stroke-dasharray:none;stroke-opacity:1"
         id="ellipse2964"
         ry="12.306628"
         rx="12.306627"
         cy="107.58587"
         cx="300.41632" />
      <ellipse
         style="fill:none;fill-opacity:1;stroke:#000000;stroke-width:0.787;stroke-dasharray:none;stroke-opacity:1"
         id="ellipse2966"
         ry="12.306628"
         rx="12.306627"
         cy="107.58587"
         cx="352.80414" />
    </g>
    <g
       id="g3018"
       transform="translate(0.26477051,53.789679)">
      <ellipse
         style="fill:none;fill-opacity:1;stroke:#000000;stroke-width:0.787;stroke-dasharray:none;stroke-opacity:1"
         id="ellipse2986"
         ry="12.306628"
         rx="12.306627"
         cy="107.58587"
         cx="300.41632" />
      <ellipse
         style="fill:none;fill-opacity:1;stroke:#000000;stroke-width:0.787;stroke-dasharray:none;stroke-opacity:1"
         id="ellipse2988"
         ry="12.306628"
         rx="12.306627"
         cy="107.58587"
         cx="352.80414" />
      <ellipse
         style="fill:none;fill-opacity:1;stroke:#000000;stroke-width:0.787;stroke-dasharray:none;stroke-opacity:1"
         id="ellipse2990"
         ry="12.306628"
         rx="12.306627"
         cy="107.58587"
         cx="300.41632" />
      <ellipse
         style="fill:none;fill-opacity:1;stroke:#000000;stroke-width:0.787;stroke-dasharray:none;stroke-opacity:1"
         id="ellipse2992"
         ry="12.306628"
         rx="12.306627"
         cy="107.58587"
         cx="352.80414" />
      <ellipse
         style="fill:none;fill-opacity:1;stroke:#000000;stroke-width:0.787;stroke-dasharray:none;stroke-opacity:1"
         id="ellipse2994"
         ry="12.306628"
         rx="12.306627"
         cy="107.58587"
         cx="300.41632" />
      <ellipse
         style="fill:none;fill-opacity:1;stroke:#000000;stroke-width:0.787;stroke-dasharray:none;stroke-opacity:1"
         id="ellipse2996"
         ry="12.306628"
         rx="12.306627"
         cy="107.58587"
         cx="352.80414" />
      <ellipse
         style="fill:none;fill-opacity:1;stroke:#000000;stroke-width:0.787;stroke-dasharray:none;stroke-opacity:1"
         id="ellipse2998"
         ry="12.306628"
         rx="12.306627"
         cy="107.58587"
         cx="300.41632" />
      <ellipse
         style="fill:none;fill-opacity:1;stroke:#000000;stroke-width:0.787;stroke-dasharray:none;stroke-opacity:1"
         id="ellipse3000"
         ry="12.306628"
         rx="12.306627"
         cy="107.58587"
         cx="352.80414" />
      <ellipse
         style="fill:none;fill-opacity:1;stroke:#000000;stroke-width:0.787;stroke-dasharray:none;stroke-opacity:1"
         id="ellipse3002"
         ry="12.306628"
         rx="12.306627"
         cy="107.58587"
         cx="300.41632" />
      <ellipse
         style="fill:none;fill-opacity:1;stroke:#000000;stroke-width:0.787;stroke-dasharray:none;stroke-opacity:1"
         id="ellipse3004"
         ry="12.306628"
         rx="12.306627"
         cy="107.58587"
         cx="352.80414" />
      <ellipse
         style="fill:none;fill-opacity:1;stroke:#000000;stroke-width:0.787;stroke-dasharray:none;stroke-opacity:1"
         id="ellipse3006"
         ry="12.306628"
         rx="12.306627"
         cy="107.58587"
         cx="300.41632" />
      <ellipse
         style="fill:none;fill-opacity:1;stroke:#000000;stroke-width:0.787;stroke-dasharray:none;stroke-opacity:1"
         id="ellipse3008"
         ry="12.306628"
         rx="12.306627"
         cy="107.58587"
         cx="352.80414" />
      <ellipse
         style="fill:none;fill-opacity:1;stroke:#000000;stroke-width:0.787;stroke-dasharray:none;stroke-opacity:1"
         id="ellipse3010"
         ry="12.306628"
         rx="12.306627"
         cy="107.58587"
         cx="300.41632" />
      <ellipse
         style="fill:none;fill-opacity:1;stroke:#000000;stroke-width:0.787;stroke-dasharray:none;stroke-opacity:1"
         id="ellipse3012"
         ry="12.306628"
         rx="12.306627"
         cy="107.58587"
         cx="352.80414" />
      <ellipse
         style="fill:none;fill-opacity:1;stroke:#000000;stroke-width:0.787;stroke-dasharray:none;stroke-opacity:1"
         id="ellipse3014"
         ry="12.306628"
         rx="12.306627"
         cy="107.58587"
         cx="300.41632" />
      <ellipse
         style="fill:none;fill-opacity:1;stroke:#000000;stroke-width:0.787;stroke-dasharray:none;stroke-opacity:1"
         id="ellipse3016"
         ry="12.306628"
         rx="12.306627"
         cy="107.58587"
         cx="352.80414" />
    </g>
    <rect
       style="fill:none;fill-opacity:1;stroke:#000000;stroke-width:0.295592;stroke-dasharray:none;stroke-opacity:1"
       id="rect5976"
       width="19.704407"
       height="12.704408"
       x="86.801041"
       y="48.049332"
       ry="0" />
    <ellipse
       style="fill:none;fill-opacity:1;stroke:#000000;stroke-width:0.149;stroke-dasharray:none;stroke-opacity:1"
       id="path7432"
       cx="327.02255"
       cy="134.375"
       rx="1.4253848"
       ry="1.4253849" />
    <ellipse
       style="fill:none;fill-opacity:1;stroke:#000000;stroke-width:0.149;stroke-dasharray:none;stroke-opacity:1"
       id="ellipse8286"
       cx="327.02255"
       cy="128.15738"
       rx="1.4253848"
       ry="1.4253849" />
    <ellipse
       style="fill:none;fill-opacity:1;stroke:#000000;stroke-width:0.149;stroke-dasharray:none;stroke-opacity:1"
       id="ellipse8288"
       cx="327.02255"
       cy="140.59262"
       rx="1.4253848"
       ry="1.4253849" />
    <ellipse
       style="fill:none;fill-opacity:1;stroke:#000000;stroke-width:0.149;stroke-dasharray:none;stroke-opacity:1"
       id="ellipse8290"
       cx="333.09558"
       cy="134.375"
       rx="1.4253848"
       ry="1.4253849" />
    <ellipse
       style="fill:none;fill-opacity:1;stroke:#000000;stroke-width:0.149;stroke-dasharray:none;stroke-opacity:1"
       id="ellipse8292"
       cx="320.80493"
       cy="134.375"
       rx="1.4253848"
       ry="1.4253849" />
    <ellipse
       style="fill:none;fill-opacity:1;stroke:#000000;stroke-width:0.149;stroke-dasharray:none;stroke-opacity:1"
       id="ellipse8294"
       cx="333.09558"
       cy="140.59262"
       rx="1.4253848"
       ry="1.4253849" />
    <ellipse
       style="fill:none;fill-opacity:1;stroke:#000000;stroke-width:0.149;stroke-dasharray:none;stroke-opacity:1"
       id="ellipse8296"
       cx="333.09558"
       cy="128.15738"
       rx="1.4253848"
       ry="1.4253849" />
    <ellipse
       style="fill:none;fill-opacity:1;stroke:#000000;stroke-width:0.149;stroke-dasharray:none;stroke-opacity:1"
       id="ellipse8298"
       cx="320.80493"
       cy="128.15738"
       rx="1.4253848"
       ry="1.4253849" />
    <ellipse
       style="fill:none;fill-opacity:1;stroke:#000000;stroke-width:0.149;stroke-dasharray:none;stroke-opacity:1"
       id="ellipse8300"
       cx="320.94952"
       cy="140.59262"
       rx="1.4253848"
       ry="1.4253849" />
    <text
       xml:space="preserve"
       style="font-size:12.7px;font-family:'Comic Sans MS';-inkscape-font-specification:'Comic Sans MS';fill:#000000;fill-opacity:1;stroke:none;stroke-width:0.149;stroke-dasharray:none;stroke-opacity:1"
       x="90.73735"
       y="245.66298"
       id="text8356"><tspan
         sodipodi:role="line"
         id="tspan8354"
         style="font-size:12.7px;fill:#000000;fill-opacity:1;stroke:none;stroke-width:0.149"
         x="90.73735"
         y="245.66298">Isabelle Stella</tspan></text>
  </g>
</svg>
