<?xml version="1.0" encoding="UTF-8" standalone="no"?>
<!-- Created with Inkscape (http://www.inkscape.org/) -->

<svg
   width="210mm"
   height="297mm"
   viewBox="0 0 210 297"
   version="1.1"
   id="svg5"
   sodipodi:docname="C:\Users\isabe\AppData\Local\Temp\ink_ext_XXXXXX.svgF2K9R1"
   inkscape:version="1.2.1 (9c6d41e410, 2022-07-14)"
   xmlns:inkscape="http://www.inkscape.org/namespaces/inkscape"
   xmlns:sodipodi="http://sodipodi.sourceforge.net/DTD/sodipodi-0.dtd"
   xmlns="http://www.w3.org/2000/svg"
   xmlns:svg="http://www.w3.org/2000/svg">
  <sodipodi:namedview
     id="namedview7"
     pagecolor="#ffffff"
     bordercolor="#000000"
     borderopacity="0.25"
     inkscape:showpageshadow="2"
     inkscape:pageopacity="0.0"
     inkscape:pagecheckerboard="0"
     inkscape:deskcolor="#d1d1d1"
     inkscape:document-units="mm"
     showgrid="false"
     inkscape:zoom="0.914906"
     inkscape:cx="733.40867"
     inkscape:cy="674.38622"
     inkscape:window-width="2560"
     inkscape:window-height="1346"
     inkscape:window-x="-11"
     inkscape:window-y="-11"
     inkscape:window-maximized="1"
     inkscape:current-layer="layer1" />
  <defs
     id="defs2" />
  <g
     inkscape:label="Layer 1"
     inkscape:groupmode="layer"
     id="layer1">
    <g
       id="panel2067">
      <path
         style="fill:none;stroke:#000000;stroke-width:1"
         d="M 76.25 200.6 L 89.875 200.6 L 89.875 197.5 L 101.925 197.5 L 101.925 200.6 L 115.525 200.6 L 115.525 197.5 L 127.575 197.5 L 127.575 200.6 L 141.175 200.6 L 141.175 197.5 L 153.225 197.5 L 153.225 200.6 L 166.825 200.6 L 166.825 197.5 L 178.875 197.5 L 178.875 200.6 L 192.5 200.6"
         id="path1302" />
      <path
         style="fill:none;stroke:#000000;stroke-width:1"
         d="M 192.5 200.6 L 192.5 211.608 L 189.4 211.608 L 189.4 223.558 L 192.5 223.558 L 192.5 237.692 L 189.4 237.692 L 189.4 249.642 L 192.5 249.642 L 192.5 260.65"
         id="path1304" />
      <path
         style="fill:none;stroke:#000000;stroke-width:1"
         d="M 192.5 260.65 L 178.875 260.65 L 178.875 263.75 L 166.825 263.75 L 166.825 260.65 L 153.225 260.65 L 153.225 263.75 L 141.175 263.75 L 141.175 260.65 L 127.575 260.65 L 127.575 263.75 L 115.525 263.75 L 115.525 260.65 L 101.925 260.65 L 101.925 263.75 L 89.875 263.75 L 89.875 260.65 L 76.25 260.65"
         id="path1306" />
      <path
         style="fill:none;stroke:#000000;stroke-width:1"
         d="M 76.25 260.65 L 76.25 249.642 L 79.35 249.642 L 79.35 237.692 L 76.25 237.692 L 76.25 223.558 L 79.35 223.558 L 79.35 211.608 L 76.25 211.608 L 76.25 200.6"
         id="path1308" />
    </g>
    <g
       id="panel5748">
      <path
         style="fill:none;stroke:#000000;stroke-width:1"
         d="M 8.1 79.35 L 19.0583 79.35 L 19.0583 76.25 L 31.1083 76.25 L 31.1083 79.35 L 45.1417 79.35 L 45.1417 76.25 L 57.1917 76.25 L 57.1917 79.35 L 68.15 79.35"
         id="path1311" />
      <path
         style="fill:none;stroke:#000000;stroke-width:1"
         d="M 68.15 79.35 L 68.15 89.875 L 71.25 89.875 L 71.25 101.925 L 68.15 101.925 L 68.15 115.525 L 71.25 115.525 L 71.25 127.575 L 68.15 127.575 L 68.15 141.175 L 71.25 141.175 L 71.25 153.225 L 68.15 153.225 L 68.15 166.825 L 71.25 166.825 L 71.25 178.875 L 68.15 178.875 L 68.15 189.4"
         id="path1313" />
      <path
         style="fill:none;stroke:#000000;stroke-width:1"
         d="M 68.15 189.4 L 57.1917 189.4 L 57.1917 192.5 L 45.1417 192.5 L 45.1417 189.4 L 31.1083 189.4 L 31.1083 192.5 L 19.0583 192.5 L 19.0583 189.4 L 8.1 189.4"
         id="path1315" />
      <path
         style="fill:none;stroke:#000000;stroke-width:1"
         d="M 8.1 189.4 L 8.1 178.875 L 5 178.875 L 5 166.825 L 8.1 166.825 L 8.1 153.225 L 5 153.225 L 5 141.175 L 8.1 141.175 L 8.1 127.575 L 5 127.575 L 5 115.525 L 8.1 115.525 L 8.1 101.925 L 5 101.925 L 5 89.875 L 8.1 89.875 L 8.1 79.35"
         id="path1317" />
    </g>
    <g
       id="panel8744">
      <path
         style="fill:none;stroke:#000000;stroke-width:1"
         d="M 76.25 76.25 L 89.925 76.25 L 89.925 79.35 L 101.875 79.35 L 101.875 76.25 L 115.575 76.25 L 115.575 79.35 L 127.525 79.35 L 127.525 76.25 L 141.225 76.25 L 141.225 79.35 L 153.175 79.35 L 153.175 76.25 L 166.875 76.25 L 166.875 79.35 L 178.825 79.35 L 178.825 76.25 L 192.5 76.25"
         id="path1320" />
      <path
         style="fill:none;stroke:#000000;stroke-width:1"
         d="M 192.5 76.25 L 192.5 89.925 L 189.4 89.925 L 189.4 101.875 L 192.5 101.875 L 192.5 115.575 L 189.4 115.575 L 189.4 127.525 L 192.5 127.525 L 192.5 141.225 L 189.4 141.225 L 189.4 153.175 L 192.5 153.175 L 192.5 166.875 L 189.4 166.875 L 189.4 178.825 L 192.5 178.825 L 192.5 192.5"
         id="path1322" />
      <path
         style="fill:none;stroke:#000000;stroke-width:1"
         d="M 192.5 192.5 L 178.825 192.5 L 178.825 189.4 L 166.875 189.4 L 166.875 192.5 L 153.175 192.5 L 153.175 189.4 L 141.225 189.4 L 141.225 192.5 L 127.525 192.5 L 127.525 189.4 L 115.575 189.4 L 115.575 192.5 L 101.875 192.5 L 101.875 189.4 L 89.925 189.4 L 89.925 192.5 L 76.25 192.5"
         id="path1324" />
      <path
         style="fill:none;stroke:#000000;stroke-width:1"
         d="M 76.25 192.5 L 76.25 178.825 L 79.35 178.825 L 79.35 166.875 L 76.25 166.875 L 76.25 153.175 L 79.35 153.175 L 79.35 141.225 L 76.25 141.225 L 76.25 127.525 L 79.35 127.525 L 79.35 115.575 L 76.25 115.575 L 76.25 101.875 L 79.35 101.875 L 79.35 89.925 L 76.25 89.925 L 76.25 76.25"
         id="path1326" />
    </g>
    <g
       id="panel5184">
      <path
         style="fill:none;stroke:#000000;stroke-width:1"
         d="M 200.6 79.35 L 211.558 79.35 L 211.558 76.25 L 223.608 76.25 L 223.608 79.35 L 237.642 79.35 L 237.642 76.25 L 249.692 76.25 L 249.692 79.35 L 260.65 79.35"
         id="path1329" />
      <path
         style="fill:none;stroke:#000000;stroke-width:1"
         d="M 260.65 79.35 L 260.65 89.875 L 263.75 89.875 L 263.75 101.925 L 260.65 101.925 L 260.65 115.525 L 263.75 115.525 L 263.75 127.575 L 260.65 127.575 L 260.65 141.175 L 263.75 141.175 L 263.75 153.225 L 260.65 153.225 L 260.65 166.825 L 263.75 166.825 L 263.75 178.875 L 260.65 178.875 L 260.65 189.4"
         id="path1331" />
      <path
         style="fill:none;stroke:#000000;stroke-width:1"
         d="M 260.65 189.4 L 249.692 189.4 L 249.692 192.5 L 237.642 192.5 L 237.642 189.4 L 223.608 189.4 L 223.608 192.5 L 211.558 192.5 L 211.558 189.4 L 200.6 189.4"
         id="path1333" />
      <path
         style="fill:none;stroke:#000000;stroke-width:1"
         d="M 200.6 189.4 L 200.6 178.875 L 197.5 178.875 L 197.5 166.825 L 200.6 166.825 L 200.6 153.225 L 197.5 153.225 L 197.5 141.175 L 200.6 141.175 L 200.6 127.575 L 197.5 127.575 L 197.5 115.525 L 200.6 115.525 L 200.6 101.925 L 197.5 101.925 L 197.5 89.875 L 200.6 89.875 L 200.6 79.35"
         id="path1335" />
    </g>
    <g
       id="panel5114">
      <path
         style="fill:none;stroke:#000000;stroke-width:1"
         d="m 268.75,76.25 h 13.675 v 3.1 h 11.95 v -5.745833 h 13.7 V 79.35 h 11.95 v -5.745833 h 13.7 V 79.35 h 11.95 v -5.745833 h 13.7 V 79.35 h 11.95 v -3.1 H 385"
         id="path1338"
         sodipodi:nodetypes="cccccccccccccccccc" />
      <path
         style="fill:none;stroke:#000000;stroke-width:1"
         d="M 385 76.25 L 385 89.925 L 381.9 89.925 L 381.9 101.875 L 385 101.875 L 385 115.575 L 381.9 115.575 L 381.9 127.525 L 385 127.525 L 385 141.225 L 381.9 141.225 L 381.9 153.175 L 385 153.175 L 385 166.875 L 381.9 166.875 L 381.9 178.825 L 385 178.825 L 385 192.5"
         id="path1340" />
      <path
         style="fill:none;stroke:#000000;stroke-width:1"
         d="m 385,192.5 h -13.675 v -3.1 h -11.95 v 6.275 h -13.7 V 189.4 h -11.95 v 6.275 h -13.7 V 189.4 h -11.95 v 6.275 h -13.7 V 189.4 h -11.95 v 3.1 H 268.75"
         id="path1342"
         sodipodi:nodetypes="cccccccccccccccccc" />
      <path
         style="fill:none;stroke:#000000;stroke-width:1"
         d="M 268.75 192.5 L 268.75 178.825 L 271.85 178.825 L 271.85 166.875 L 268.75 166.875 L 268.75 153.175 L 271.85 153.175 L 271.85 141.225 L 268.75 141.225 L 268.75 127.525 L 271.85 127.525 L 271.85 115.575 L 268.75 115.575 L 268.75 101.875 L 271.85 101.875 L 271.85 89.925 L 268.75 89.925 L 268.75 76.25"
         id="path1344" />
    </g>
    <g
       id="panel5321">
      <path
         style="fill:none;stroke:#000000;stroke-width:1"
         d="M 76.25 8.1 L 89.875 8.1 L 89.875 5 L 101.925 5 L 101.925 8.1 L 115.525 8.1 L 115.525 5 L 127.575 5 L 127.575 8.1 L 141.175 8.1 L 141.175 5 L 153.225 5 L 153.225 8.1 L 166.825 8.1 L 166.825 5 L 178.875 5 L 178.875 8.1 L 192.5 8.1"
         id="path1347" />
      <path
         style="fill:none;stroke:#000000;stroke-width:1"
         d="M 192.5 8.1 L 192.5 19.1083 L 189.4 19.1083 L 189.4 31.0583 L 192.5 31.0583 L 192.5 45.1917 L 189.4 45.1917 L 189.4 57.1417 L 192.5 57.1417 L 192.5 68.15"
         id="path1349" />
      <path
         style="fill:none;stroke:#000000;stroke-width:1"
         d="M 192.5 68.15 L 178.875 68.15 L 178.875 71.25 L 166.825 71.25 L 166.825 68.15 L 153.225 68.15 L 153.225 71.25 L 141.175 71.25 L 141.175 68.15 L 127.575 68.15 L 127.575 71.25 L 115.525 71.25 L 115.525 68.15 L 101.925 68.15 L 101.925 71.25 L 89.875 71.25 L 89.875 68.15 L 76.25 68.15"
         id="path1351" />
      <path
         style="fill:none;stroke:#000000;stroke-width:1"
         d="M 76.25 68.15 L 76.25 57.1417 L 79.35 57.1417 L 79.35 45.1917 L 76.25 45.1917 L 76.25 31.0583 L 79.35 31.0583 L 79.35 19.1083 L 76.25 19.1083 L 76.25 8.1"
         id="path1353" />
    </g>
    <g
       id="g2984">
      <ellipse
         style="fill:none;fill-opacity:1;stroke:#000000;stroke-width:0.787;stroke-dasharray:none;stroke-opacity:1"
         id="ellipse2936"
         ry="12.306628"
         rx="12.306627"
         cy="107.58587"
         cx="300.41632" />
      <ellipse
         style="fill:none;fill-opacity:1;stroke:#000000;stroke-width:0.787;stroke-dasharray:none;stroke-opacity:1"
         id="ellipse2938"
         ry="12.306628"
         rx="12.306627"
         cy="107.58587"
         cx="352.80414" />
      <ellipse
         style="fill:none;fill-opacity:1;stroke:#000000;stroke-width:0.787;stroke-dasharray:none;stroke-opacity:1"
         id="ellipse2940"
         ry="12.306628"
         rx="12.306627"
         cy="107.58587"
         cx="300.41632" />
      <ellipse
         style="fill:none;fill-opacity:1;stroke:#000000;stroke-width:0.787;stroke-dasharray:none;stroke-opacity:1"
         id="ellipse2942"
         ry="12.306628"
         rx="12.306627"
         cy="107.58587"
         cx="352.80414" />
      <ellipse
         style="fill:none;fill-opacity:1;stroke:#000000;stroke-width:0.787;stroke-dasharray:none;stroke-opacity:1"
         id="ellipse2944"
         ry="12.306628"
         rx="12.306627"
         cy="107.58587"
         cx="300.41632" />
      <ellipse
         style="fill:none;fill-opacity:1;stroke:#000000;stroke-width:0.787;stroke-dasharray:none;stroke-opacity:1"
         id="ellipse2946"
         ry="12.306628"
         rx="12.306627"
         cy="107.58587"
         cx="352.80414" />
      <ellipse
         style="fill:none;fill-opacity:1;stroke:#000000;stroke-width:0.787;stroke-dasharray:none;stroke-opacity:1"
         id="ellipse2948"
         ry="12.306628"
         rx="12.306627"
         cy="107.58587"
         cx="300.41632" />
      <ellipse
         style="fill:none;fill-opacity:1;stroke:#000000;stroke-width:0.787;stroke-dasharray:none;stroke-opacity:1"
         id="ellipse2950"
         ry="12.306628"
         rx="12.306627"
         cy="107.58587"
         cx="352.80414" />
      <ellipse
         style="fill:none;fill-opacity:1;stroke:#000000;stroke-width:0.787;stroke-dasharray:none;stroke-opacity:1"
         id="ellipse2952"
         ry="12.306628"
         rx="12.306627"
         cy="107.58587"
         cx="300.41632" />
      <ellipse
         style="fill:none;fill-opacity:1;stroke:#000000;stroke-width:0.787;stroke-dasharray:none;stroke-opacity:1"
         id="ellipse2954"
         ry="12.306628"
         rx="12.306627"
         cy="107.58587"
         cx="352.80414" />
      <ellipse
         style="fill:none;fill-opacity:1;stroke:#000000;stroke-width:0.787;stroke-dasharray:none;stroke-opacity:1"
         id="ellipse2956"
         ry="12.306628"
         rx="12.306627"
         cy="107.58587"
         cx="300.41632" />
      <ellipse
         style="fill:none;fill-opacity:1;stroke:#000000;stroke-width:0.787;stroke-dasharray:none;stroke-opacity:1"
         id="ellipse2958"
         ry="12.306628"
         rx="12.306627"
         cy="107.58587"
         cx="352.80414" />
      <ellipse
         style="fill:none;fill-opacity:1;stroke:#000000;stroke-width:0.787;stroke-dasharray:none;stroke-opacity:1"
         id="ellipse2960"
         ry="12.306628"
         rx="12.306627"
         cy="107.58587"
         cx="300.41632" />
      <ellipse
         style="fill:none;fill-opacity:1;stroke:#000000;stroke-width:0.787;stroke-dasharray:none;stroke-opacity:1"
         id="ellipse2962"
         ry="12.306628"
         rx="12.306627"
         cy="107.58587"
         cx="352.80414" />
      <ellipse
         style="fill:none;fill-opacity:1;stroke:#000000;stroke-width:0.787;stroke-dasharray:none;stroke-opacity:1"
         id="ellipse2964"
         ry="12.306628"
         rx="12.306627"
         cy="107.58587"
         cx="300.41632" />
      <ellipse
         style="fill:none;fill-opacity:1;stroke:#000000;stroke-width:0.787;stroke-dasharray:none;stroke-opacity:1"
         id="ellipse2966"
         ry="12.306628"
         rx="12.306627"
         cy="107.58587"
         cx="352.80414" />
    </g>
    <g
       id="g3018"
       transform="translate(0.26477051,53.789679)">
      <ellipse
         style="fill:none;fill-opacity:1;stroke:#000000;stroke-width:0.787;stroke-dasharray:none;stroke-opacity:1"
         id="ellipse2986"
         ry="12.306628"
         rx="12.306627"
         cy="107.58587"
         cx="300.41632" />
      <ellipse
         style="fill:none;fill-opacity:1;stroke:#000000;stroke-width:0.787;stroke-dasharray:none;stroke-opacity:1"
         id="ellipse2988"
         ry="12.306628"
         rx="12.306627"
         cy="107.58587"
         cx="352.80414" />
      <ellipse
         style="fill:none;fill-opacity:1;stroke:#000000;stroke-width:0.787;stroke-dasharray:none;stroke-opacity:1"
         id="ellipse2990"
         ry="12.306628"
         rx="12.306627"
         cy="107.58587"
         cx="300.41632" />
      <ellipse
         style="fill:none;fill-opacity:1;stroke:#000000;stroke-width:0.787;stroke-dasharray:none;stroke-opacity:1"
         id="ellipse2992"
         ry="12.306628"
         rx="12.306627"
         cy="107.58587"
         cx="352.80414" />
      <ellipse
         style="fill:none;fill-opacity:1;stroke:#000000;stroke-width:0.787;stroke-dasharray:none;stroke-opacity:1"
         id="ellipse2994"
         ry="12.306628"
         rx="12.306627"
         cy="107.58587"
         cx="300.41632" />
      <ellipse
         style="fill:none;fill-opacity:1;stroke:#000000;stroke-width:0.787;stroke-dasharray:none;stroke-opacity:1"
         id="ellipse2996"
         ry="12.306628"
         rx="12.306627"
         cy="107.58587"
         cx="352.80414" />
      <ellipse
         style="fill:none;fill-opacity:1;stroke:#000000;stroke-width:0.787;stroke-dasharray:none;stroke-opacity:1"
         id="ellipse2998"
         ry="12.306628"
         rx="12.306627"
         cy="107.58587"
         cx="300.41632" />
      <ellipse
         style="fill:none;fill-opacity:1;stroke:#000000;stroke-width:0.787;stroke-dasharray:none;stroke-opacity:1"
         id="ellipse3000"
         ry="12.306628"
         rx="12.306627"
         cy="107.58587"
         cx="352.80414" />
      <ellipse
         style="fill:none;fill-opacity:1;stroke:#000000;stroke-width:0.787;stroke-dasharray:none;stroke-opacity:1"
         id="ellipse3002"
         ry="12.306628"
         rx="12.306627"
         cy="107.58587"
         cx="300.41632" />
      <ellipse
         style="fill:none;fill-opacity:1;stroke:#000000;stroke-width:0.787;stroke-dasharray:none;stroke-opacity:1"
         id="ellipse3004"
         ry="12.306628"
         rx="12.306627"
         cy="107.58587"
         cx="352.80414" />
      <ellipse
         style="fill:none;fill-opacity:1;stroke:#000000;stroke-width:0.787;stroke-dasharray:none;stroke-opacity:1"
         id="ellipse3006"
         ry="12.306628"
         rx="12.306627"
         cy="107.58587"
         cx="300.41632" />
      <ellipse
         style="fill:none;fill-opacity:1;stroke:#000000;stroke-width:0.787;stroke-dasharray:none;stroke-opacity:1"
         id="ellipse3008"
         ry="12.306628"
         rx="12.306627"
         cy="107.58587"
         cx="352.80414" />
      <ellipse
         style="fill:none;fill-opacity:1;stroke:#000000;stroke-width:0.787;stroke-dasharray:none;stroke-opacity:1"
         id="ellipse3010"
         ry="12.306628"
         rx="12.306627"
         cy="107.58587"
         cx="300.41632" />
      <ellipse
         style="fill:none;fill-opacity:1;stroke:#000000;stroke-width:0.787;stroke-dasharray:none;stroke-opacity:1"
         id="ellipse3012"
         ry="12.306628"
         rx="12.306627"
         cy="107.58587"
         cx="352.80414" />
      <ellipse
         style="fill:none;fill-opacity:1;stroke:#000000;stroke-width:0.787;stroke-dasharray:none;stroke-opacity:1"
         id="ellipse3014"
         ry="12.306628"
         rx="12.306627"
         cy="107.58587"
         cx="300.41632" />
      <ellipse
         style="fill:none;fill-opacity:1;stroke:#000000;stroke-width:0.787;stroke-dasharray:none;stroke-opacity:1"
         id="ellipse3016"
         ry="12.306628"
         rx="12.306627"
         cy="107.58587"
         cx="352.80414" />
    </g>
    <rect
       style="fill:none;fill-opacity:1;stroke:#000000;stroke-width:0.295592;stroke-dasharray:none;stroke-opacity:1"
       id="rect5976"
       width="19.704407"
       height="12.704408"
       x="86.801041"
       y="48.049332"
       ry="0" />
    <ellipse
       style="fill:none;fill-opacity:1;stroke:#000000;stroke-width:0.149;stroke-dasharray:none;stroke-opacity:1"
       id="path7432"
       cx="327.02255"
       cy="134.375"
       rx="1.4253848"
       ry="1.4253849" />
    <ellipse
       style="fill:none;fill-opacity:1;stroke:#000000;stroke-width:0.149;stroke-dasharray:none;stroke-opacity:1"
       id="ellipse8286"
       cx="327.02255"
       cy="128.15738"
       rx="1.4253848"
       ry="1.4253849" />
    <ellipse
       style="fill:none;fill-opacity:1;stroke:#000000;stroke-width:0.149;stroke-dasharray:none;stroke-opacity:1"
       id="ellipse8288"
       cx="327.02255"
       cy="140.59262"
       rx="1.4253848"
       ry="1.4253849" />
    <ellipse
       style="fill:none;fill-opacity:1;stroke:#000000;stroke-width:0.149;stroke-dasharray:none;stroke-opacity:1"
       id="ellipse8290"
       cx="333.09558"
       cy="134.375"
       rx="1.4253848"
       ry="1.4253849" />
    <ellipse
       style="fill:none;fill-opacity:1;stroke:#000000;stroke-width:0.149;stroke-dasharray:none;stroke-opacity:1"
       id="ellipse8292"
       cx="320.80493"
       cy="134.375"
       rx="1.4253848"
       ry="1.4253849" />
    <ellipse
       style="fill:none;fill-opacity:1;stroke:#000000;stroke-width:0.149;stroke-dasharray:none;stroke-opacity:1"
       id="ellipse8294"
       cx="333.09558"
       cy="140.59262"
       rx="1.4253848"
       ry="1.4253849" />
    <ellipse
       style="fill:none;fill-opacity:1;stroke:#000000;stroke-width:0.149;stroke-dasharray:none;stroke-opacity:1"
       id="ellipse8296"
       cx="333.09558"
       cy="128.15738"
       rx="1.4253848"
       ry="1.4253849" />
    <ellipse
       style="fill:none;fill-opacity:1;stroke:#000000;stroke-width:0.149;stroke-dasharray:none;stroke-opacity:1"
       id="ellipse8298"
       cx="320.80493"
       cy="128.15738"
       rx="1.4253848"
       ry="1.4253849" />
    <ellipse
       style="fill:none;fill-opacity:1;stroke:#000000;stroke-width:0.149;stroke-dasharray:none;stroke-opacity:1"
       id="ellipse8300"
       cx="320.94952"
       cy="140.59262"
       rx="1.4253848"
       ry="1.4253849" />
    <text
       xml:space="preserve"
       style="font-size:12.7px;font-family:'Comic Sans MS';-inkscape-font-specification:'Comic Sans MS';fill:#000000;fill-opacity:1;stroke:none;stroke-width:0.149;stroke-dasharray:none;stroke-opacity:1"
       x="90.73735"
       y="245.66298"
       id="text8356"><tspan
         sodipodi:role="line"
         id="tspan8354"
         style="font-size:12.7px;fill:#000000;fill-opacity:1;stroke:none;stroke-width:0.149"
         x="90.73735"
         y="245.66298">Isabelle Stella</tspan></text>
  </g>
</svg>
